<svg version="1.1" id="Layer_1" xmlns="http://www.w3.org/2000/svg" xmlns:xlink="http://www.w3.org/1999/xlink" x="0px" y="0px"
	 width="100%" viewBox="0 0 500 500" enable-background="new 0 0 500 500" xml:space="preserve">
<path fill="none" opacity="1.000000" stroke="#000000" stroke-linecap="round" stroke-linejoin="round" stroke-width="7.000000"
	d="
M282.500000,154.500000 
	C278.747040,152.480865 274.744415,151.943375 270.499878,151.955215 
	C240.333435,152.039322 210.166672,151.997269 180.000000,152.001663 
	C171.025681,152.002975 169.003128,154.025696 169.001663,163.000000 
	C168.997116,191.000000 168.997116,219.000000 169.001663,247.000000 
	C169.003128,255.974319 171.025696,257.997040 180.000000,257.998322 
	C210.666672,258.002686 241.334579,258.146667 271.999023,257.884613 
	C278.672424,257.827576 285.204407,256.970032 292.030670,257.721497 
	C301.910919,258.809204 312.000732,258.074432 321.999786,257.976715 
	C330.179565,257.896759 330.508636,255.712799 330.505890,249.500000 
	C330.492737,219.833328 330.492737,190.166672 330.505890,160.500000 
	C330.508667,154.287186 330.179535,152.103180 321.999786,152.023270 
	C312.000732,151.925537 301.999512,152.056335 292.000275,151.967682 
	C288.752319,151.938904 285.863159,152.952621 283.000000,154.250000 
"/>
<path fill="none" opacity="1.000000" stroke="#000000" stroke-linecap="round" stroke-linejoin="round" stroke-width="8.000000"
	d="
M282.500000,155.000000 
	C283.336426,158.113708 283.532013,161.276733 283.526672,164.500046 
	C283.480377,192.333298 283.489471,220.166687 283.518616,247.999985 
	C283.521149,250.401505 283.412384,252.749390 282.500000,255.000000 
"/>
<path fill="none" opacity="1.000000" stroke="#000000" stroke-linecap="round" stroke-linejoin="round" stroke-width="7.000000"
	d="
M227.000000,287.500000 
	C222.603363,281.077972 215.268997,280.147888 209.010696,282.528137 
	C203.108109,284.773071 200.135468,290.724854 200.571106,298.996246 
	C200.900940,305.258881 203.568558,310.548126 210.029022,312.398682 
	C215.019470,313.828156 220.021637,313.559143 224.573395,310.096497 
	C226.386414,308.717285 226.763107,307.413239 226.500000,305.500000 
"/>
<path fill="none" opacity="1.000000" stroke="#000000" stroke-linecap="round" stroke-linejoin="round" stroke-width="7.000000"
	d="
M349.500000,288.500000 
	C347.299042,287.677826 345.263306,286.890167 343.407471,285.095703 
	C338.867523,280.705963 333.102783,280.277100 327.543030,282.602875 
	C322.093567,284.882477 319.644867,289.733612 318.998779,295.499878 
	C318.491119,300.030548 319.681183,304.189423 322.023621,307.985443 
	C325.937988,314.328949 340.919067,315.954285 345.500000,307.000000 
"/>
<path fill="none" opacity="1.000000" stroke="#000000" stroke-linecap="round" stroke-linejoin="round" stroke-width="10.000000"
	d="
M195.500000,205.500000 
	C194.833328,208.000000 194.202377,210.510193 193.491867,212.997681 
	C192.346390,217.007980 193.111420,220.575378 195.465897,224.023285 
	C198.783829,228.882080 202.921234,233.008255 207.583267,236.385056 
	C211.871002,239.490753 217.448135,239.284607 221.890076,237.258957 
	C225.910324,235.425613 229.138153,236.325958 232.466553,237.588181 
	C237.078400,239.337143 241.227905,238.543488 244.960281,235.942993 
	C251.566467,231.340179 257.861481,226.524307 259.159180,217.522949 
	C259.640991,214.181076 258.924103,211.258957 257.838379,208.565140 
	C256.648346,205.612396 256.968292,203.268539 257.943817,200.480347 
	C260.568146,192.979767 259.017883,186.422302 253.015106,180.983337 
	C248.714066,177.086304 245.229843,172.333084 238.516098,171.798050 
	C235.493637,171.557175 232.178864,171.513733 230.148438,172.744812 
	C226.599869,174.896378 223.488586,174.148010 220.546738,172.890640 
	C214.775772,170.424057 209.966980,171.589035 205.509964,175.511322 
	C203.120468,177.614166 200.772247,179.771713 198.512024,182.012131 
	C192.874832,187.599945 191.383316,194.076721 194.481842,201.507568 
	C194.945648,202.619843 195.166656,203.833328 195.499985,205.000000 
"/>
<path fill="none" opacity="1.000000" stroke="#000000" stroke-linecap="round" stroke-linejoin="round" stroke-width="7.000000"
	d="
M283.000000,298.500000 
	C283.758575,296.733643 285.692047,296.524170 287.038330,295.553131 
	C289.738129,293.605835 290.618958,290.988037 289.934296,288.015137 
	C289.124664,284.499481 286.508911,282.627594 282.999359,282.003662 
	C282.837799,281.974945 282.664734,282.016571 282.500275,281.997620 
	C272.454102,280.839447 272.000000,281.250061 272.000000,291.500000 
	C272.000000,298.666656 272.000000,305.833344 272.000000,313.000000 
"/>
<path fill="none" opacity="1.000000" stroke="#000000" stroke-linecap="round" stroke-linejoin="round" stroke-width="8.000000"
	d="
M394.500000,282.500000 
	C394.500000,291.000000 394.670898,299.504974 394.423737,307.997772 
	C394.310028,311.905579 395.842468,313.188843 399.501495,313.035797 
	C403.328156,312.875732 407.166656,313.000000 411.000000,313.000000 
"/>
<path fill="none" opacity="1.000000" stroke="#000000" stroke-linecap="round" stroke-linejoin="round" stroke-width="7.000000"
	d="
M142.000000,282.000000 
	C142.000000,290.333344 141.974869,298.666748 142.009201,306.999969 
	C142.030518,312.170807 142.829178,312.945435 148.000061,312.994110 
	C151.333084,313.025482 154.666672,313.000000 158.000000,313.000000 
"/>
<path fill="none" opacity="1.000000" stroke="#000000" stroke-linecap="round" stroke-linejoin="round" stroke-width="4.000000"
	d="
M342.500000,338.000000 
	C339.734528,337.697632 338.982971,334.107056 335.489105,334.326385 
	C331.514343,334.575928 328.768616,335.319153 327.435974,339.479492 
	C326.224457,343.261902 326.967499,347.567139 330.013611,349.982819 
	C332.950684,352.312134 335.975006,352.215210 339.018616,350.025879 
	C339.725800,349.517181 340.666656,349.333313 341.500000,348.999969 
"/>
<path fill="none" opacity="1.000000" stroke="#000000" stroke-linecap="round" stroke-linejoin="round" stroke-width="4.000000"
	d="
M205.500000,337.500000 
	C201.233276,333.685303 196.627609,333.360657 193.480972,336.480804 
	C190.658112,339.279877 190.841675,347.035370 193.479126,349.522125 
	C196.659546,352.520874 201.063889,352.219604 205.500000,348.500000 
"/>
<path fill="none" opacity="1.000000" stroke="#000000" stroke-linecap="round" stroke-linejoin="round" stroke-width="7.000000"
	d="
M128.000000,282.000000 
	C123.333336,282.000000 118.665810,282.054382 114.000298,281.981079 
	C110.849815,281.931610 109.352348,283.063080 109.441750,286.501526 
	C109.632286,293.829895 109.632294,301.170105 109.441750,308.498474 
	C109.352348,311.936920 110.849815,313.068390 114.000298,313.018890 
	C118.665810,312.945587 123.333336,313.000000 128.000000,313.000000 
"/>
<path fill="none" opacity="1.000000" stroke="#000000" stroke-linecap="round" stroke-linejoin="round" stroke-width="7.000000"
	d="
M188.000000,282.000000 
	C183.166672,282.000000 178.332657,282.047821 173.500275,281.980164 
	C171.017700,281.945435 169.746094,283.031006 170.024994,285.497162 
	C170.439056,289.158630 169.939728,292.787842 170.688156,296.561829 
	C171.347733,299.887665 169.958328,303.780090 169.939072,307.499695 
	C169.918579,311.459076 171.537827,313.172058 175.501144,313.032715 
	C179.662674,312.886414 183.833328,313.000000 188.000000,313.000000 
"/>
<path fill="none" opacity="1.000000" stroke="#000000" stroke-linecap="round" stroke-linejoin="round" stroke-width="8.000000"
	d="
M305.500000,282.500000 
	C305.500000,292.500000 305.500000,302.500000 305.500000,312.500000 
"/>
<path fill="none" opacity="1.000000" stroke="#000000" stroke-linecap="round" stroke-linejoin="round" stroke-width="8.000000"
	d="
M321.500000,248.500000 
	C311.833344,248.500000 302.166656,248.500000 292.500000,248.500000 
"/>
<path fill="none" opacity="1.000000" stroke="#000000" stroke-linecap="round" stroke-linejoin="round" stroke-width="8.000000"
	d="
M248.500000,283.500000 
	C248.500000,293.166656 248.500000,302.833344 248.500000,312.500000 
"/>
<path fill="none" opacity="1.000000" stroke="#000000" stroke-linecap="round" stroke-linejoin="round" stroke-width="9.000000"
	d="
M321.000000,227.000000 
	C311.666656,227.000000 302.333344,227.000000 293.000000,227.000000 
"/>
<path fill="none" opacity="1.000000" stroke="#000000" stroke-linecap="round" stroke-linejoin="round" stroke-width="9.000000"
	d="
M321.000000,205.000000 
	C311.666656,205.000000 302.333344,205.000000 293.000000,205.000000 
"/>
<path fill="none" opacity="1.000000" stroke="#000000" stroke-linecap="round" stroke-linejoin="round" stroke-width="4.000000"
	d="
M286.500000,334.500000 
	C286.500000,340.005035 286.500000,345.510101 286.500000,351.500000 
	C289.813782,351.500000 292.656891,351.500000 295.500000,351.500000 
"/>
<path fill="none" opacity="1.000000" stroke="#000000" stroke-linecap="round" stroke-linejoin="round" stroke-width="6.000000"
	d="
M385.500000,315.000000 
	C379.260468,312.893799 379.267792,306.623993 377.107513,301.950317 
	C374.573975,296.469086 373.888580,290.141541 369.227844,285.206329 
	C364.293121,288.271667 363.728851,293.829803 362.124817,298.542480 
	C360.423645,303.540253 358.127167,308.219299 356.000000,313.000000 
"/>
<path fill="none" opacity="1.000000" stroke="#000000" stroke-linecap="round" stroke-linejoin="round" stroke-width="7.000000"
	d="
M238.500000,204.500000 
	C244.305252,205.649673 250.176193,204.499695 256.000000,205.000000 
"/>
<path fill="none" opacity="1.000000" stroke="#000000" stroke-linecap="round" stroke-linejoin="round" stroke-width="5.000000"
	d="
M226.500000,217.500000 
	C226.500000,223.333328 226.500000,229.166672 226.500000,235.000000 
"/>
<path fill="none" opacity="1.000000" stroke="#000000" stroke-linecap="round" stroke-linejoin="round" stroke-width="3.000000"
	d="
M196.000000,205.000000 
	C201.833328,206.197449 207.666672,204.863083 213.500000,205.000000 
"/>
<path fill="none" opacity="1.000000" stroke="#000000" stroke-linecap="round" stroke-linejoin="round" stroke-width="4.000000"
	d="
M182.500000,334.500000 
	C179.324554,334.500000 176.149124,334.500000 172.316971,334.500000 
	C172.893265,337.683746 171.611420,340.440948 173.500000,343.000000 
"/>
<path fill="none" opacity="1.000000" stroke="#000000" stroke-linecap="round" stroke-linejoin="round" stroke-width="3.000000"
	d="
M226.000000,175.000000 
	C226.000000,180.833328 226.000000,186.666672 226.000000,192.500000 
"/>
<path fill="none" opacity="1.000000" stroke="#000000" stroke-linecap="round" stroke-linejoin="round" stroke-width="4.000000"
	d="
M181.500000,342.500000 
	C181.000000,342.500000 180.498764,342.523132 180.000183,342.496552 
	C171.789215,342.058960 171.777710,343.162109 173.077972,351.500000 
	C176.149139,351.500000 179.324570,351.500000 182.500000,351.500000 
"/>
<path fill="none" opacity="1.000000" stroke="#000000" stroke-linecap="round" stroke-linejoin="round" stroke-width="6.000000"
	d="
M273.500000,297.500000 
	C275.000000,297.500000 276.500153,297.513092 277.999969,297.497131 
	C280.600128,297.469421 282.086578,298.094879 283.747772,300.850647 
	C286.600464,305.583069 288.213593,311.446716 293.500000,314.500000 
"/>
<path fill="none" opacity="1.000000" stroke="#000000" stroke-linecap="round" stroke-linejoin="round" stroke-width="7.000000"
	d="
M187.000000,297.000000 
	C181.836105,297.252655 176.638077,296.446960 171.500000,297.500000 
"/>
<path fill="none" opacity="1.000000" stroke="#000000" stroke-linecap="round" stroke-linejoin="round" stroke-width="7.000000"
	d="
M361.500000,304.000000 
	C366.500000,305.585815 371.500000,305.585815 376.500000,304.000000 
"/>
<path fill="none" opacity="1.000000" stroke="#000000" stroke-linecap="round" stroke-linejoin="round" stroke-width="5.000000"
	d="
M157.000000,336.000000 
	C157.000000,341.000000 157.000000,346.000000 157.000000,351.000000 
"/>
<path fill="none" opacity="1.000000" stroke="#000000" stroke-linecap="round" stroke-linejoin="round" stroke-width="7.000000"
	d="
M111.000000,297.000000 
	C116.000000,297.000000 121.000000,297.000000 126.000000,297.000000 
"/>
<path fill="none" opacity="1.000000" stroke="#000000" stroke-linecap="round" stroke-linejoin="round" stroke-width="4.000000"
	d="
M251.499985,334.500000 
	C251.333313,340.000000 251.166641,345.500000 250.999985,351.000000 
"/>
<path fill="none" opacity="1.000000" stroke="#000000" stroke-linecap="round" stroke-linejoin="round" stroke-width="3.000000"
	d="
M239.250000,335.000000 
	C243.195618,339.211517 245.221863,344.951416 250.000000,348.500000 
"/>
<path fill="none" opacity="1.000000" stroke="#000000" stroke-linecap="round" stroke-linejoin="round" stroke-width="5.000000"
	d="
M239.750000,338.000000 
	C238.215988,342.259247 239.344788,346.672150 239.000000,351.000000 
"/>
<path fill="none" opacity="1.000000" stroke="#000000" stroke-linecap="round" stroke-linejoin="round" stroke-width="7.000000"
	d="
M260.000000,282.000000 
	C252.000000,282.000000 244.000000,282.000000 236.000000,282.000000 
"/>
<path fill="none" opacity="1.000000" stroke="#000000" stroke-linecap="round" stroke-linejoin="round" stroke-width="4.000000"
	d="
M366.500000,333.500000 
	C360.405457,337.952728 356.656494,343.578247 357.500000,351.500000 
"/>
<path fill="none" opacity="1.000000" stroke="#000000" stroke-linecap="round" stroke-linejoin="round" stroke-width="4.000000"
	d="
M349.500000,334.000000 
	C351.873444,334.293213 352.511719,336.286224 353.523651,337.985901 
	C354.617371,339.822876 355.225037,342.086639 357.500000,343.000000 
"/>
<path fill="none" opacity="1.000000" stroke="#000000" stroke-linecap="round" stroke-linejoin="round" stroke-width="4.000000"
	d="
M227.000000,342.500000 
	C223.671295,342.759155 220.288086,341.928345 217.000000,343.000000 
"/>
<path fill="none" opacity="1.000000" stroke="#000000" stroke-linecap="round" stroke-linejoin="round" stroke-width="4.000000"
	d="
M342.500000,351.500000 
	C342.269135,349.172729 342.038269,346.845459 341.779175,344.233368 
	C340.713440,343.206207 339.065948,343.536591 337.500000,343.500000 
"/>
<path fill="none" opacity="1.000000" stroke="#000000" stroke-linecap="round" stroke-linejoin="round" stroke-width="4.000000"
	d="
M215.500000,334.500000 
	C215.500000,340.166656 215.500000,345.833344 215.500000,351.500000 
"/>
<path fill="none" opacity="1.000000" stroke="#000000" stroke-linecap="round" stroke-linejoin="round" stroke-width="5.000000"
	d="
M228.000000,335.000000 
	C228.000000,340.333344 228.000000,345.666656 228.000000,351.000000 
"/>
<path fill="none" opacity="1.000000" stroke="#000000" stroke-linecap="round" stroke-linejoin="round" stroke-width="4.000000"
	d="
M163.500000,334.500000 
	C159.166672,334.500000 154.833328,334.500000 150.500000,334.500000 
"/>
<path fill="none" opacity="1.000000" stroke="#000000" stroke-linecap="round" stroke-linejoin="round" stroke-width="4.000000"
	d="
M308.000000,334.500000 
	C302.300293,338.680878 301.239197,345.387787 305.476807,349.523773 
	C308.477173,352.452179 311.791595,351.973633 314.965393,350.428894 
	C318.086731,348.909698 319.019043,344.374329 318.054626,339.987976 
	C317.243195,336.297302 315.288513,334.421204 311.499939,334.497009 
	C310.500336,334.516998 309.500000,334.500000 308.500000,334.500000 
"/>
<path fill="none" opacity="1.000000" stroke="#000000" stroke-linecap="round" stroke-linejoin="round" stroke-width="4.000000"
	d="
M266.000000,334.500000 
	C260.300293,338.680878 259.239197,345.387787 263.476807,349.523773 
	C266.477173,352.452179 269.791595,351.973633 272.965393,350.428894 
	C276.086731,348.909698 277.019043,344.374329 276.054626,339.987976 
	C275.243195,336.297302 273.288513,334.421204 269.499939,334.496979 
	C268.500336,334.516998 267.500000,334.500000 266.500000,334.500000 
"/>
</svg>